<svg xmlns="http://www.w3.org/2000/svg" viewBox="0 0 200 200" role="img" aria-label="Wheat crop illustration">
  <defs>
    <linearGradient id="wh-bg" x1="0" y1="0" x2="1" y2="1">
      <stop offset="0" stop-color="#fdf8e8"/><stop offset="1" stop-color="#f0e3bd"/>
    </linearGradient>
    <linearGradient id="wh-grain" x1="0" y1="0" x2="1" y2="1">
      <stop offset="0" stop-color="#f2cf74"/><stop offset="1" stop-color="#d59f34"/>
    </linearGradient>
  </defs>
  <rect width="200" height="200" rx="30" fill="url(#wh-bg)"/>
  <path d="M100 172V64" stroke="#8aa64f" stroke-width="5" stroke-linecap="round"/>
  <g fill="url(#wh-grain)">
    <ellipse cx="86" cy="76" rx="13" ry="9" transform="rotate(-30 86 76)"/>
    <ellipse cx="114" cy="76" rx="13" ry="9" transform="rotate(30 114 76)"/>
    <ellipse cx="84" cy="98" rx="14" ry="10" transform="rotate(-30 84 98)"/>
    <ellipse cx="116" cy="98" rx="14" ry="10" transform="rotate(30 116 98)"/>
    <ellipse cx="84" cy="122" rx="14" ry="10" transform="rotate(-30 84 122)"/>
    <ellipse cx="116" cy="122" rx="14" ry="10" transform="rotate(30 116 122)"/>
    <ellipse cx="100" cy="54" rx="11" ry="17"/>
  </g>
  <path d="M100 150c-16 2-26-6-30-18 14-4 26 2 30 18Z" fill="#7fa348" opacity=".85"/>
</svg>
